<svg width="69" height="70" viewBox="0 0 69 70" fill="none" xmlns="http://www.w3.org/2000/svg">
<rect x="1.5" y="2.5" width="65" height="65" stroke="#006DEA"/>
<rect x="66.5" y="0.5" width="2" height="2" fill="#D9D9D9" stroke="#006DEA"/>
<rect x="66.5" y="67.5" width="2" height="2" fill="#D9D9D9" stroke="#006DEA"/>
<rect x="0.5" y="0.5" width="2" height="2" fill="#D9D9D9" stroke="#006DEA"/>
<rect x="0.5" y="67.5" width="2" height="2" fill="#D9D9D9" stroke="#006DEA"/>
<path d="M47.7569 19.7412L34.7391 29.9005L21.4238 19.7412V19.744L21.4399 19.7577V33.9834L34.5891 44.3622L47.7569 34.3841V19.7412Z" fill="#EA4335"/>
<path d="M51.1706 17.2688L47.752 19.74V34.3829L58.5093 26.1239V21.1485C58.5093 21.1485 57.2036 14.0426 51.1706 17.2688Z" fill="#FBBC05"/>
<path d="M47.752 34.3831V53.3753H55.9969C55.9969 53.3753 58.3432 53.1338 58.5119 50.4594V26.124L47.752 34.3831Z" fill="#34A853"/>
<path d="M21.4405 53.3931V33.9834L21.4238 33.9697L21.4405 53.3931Z" fill="#C5221F"/>
<path d="M21.4191 19.7421L18.0192 17.2847C11.9862 14.0585 10.6777 21.1617 10.6777 21.1617V26.1369L21.4191 33.9678V19.7421Z" fill="#C5221F"/>
<path d="M21.4238 19.7432V33.9689L21.4405 33.9826V19.7569L21.4238 19.7432Z" fill="#C5221F"/>
<path d="M10.6777 26.1406V50.476C10.844 53.1532 13.1928 53.3922 13.1928 53.3922H21.4378L21.4191 33.9687L10.6777 26.1406Z" fill="#4285F4"/>
</svg>
