<svg width="126" height="126" viewBox="0 0 126 126" fill="none" xmlns="http://www.w3.org/2000/svg">
<path d="M63.3333 117.667C92.7885 117.667 116.667 93.7885 116.667 64.3333C116.667 34.8781 92.7885 11 63.3333 11C33.8781 11 10 34.8781 10 64.3333C10 93.7885 33.8781 117.667 63.3333 117.667Z" fill="#C13584"/>
<path d="M63.334 38.0989C71.8783 38.0989 72.8905 38.1314 76.2647 38.2853C79.3847 38.4277 81.0791 38.949 82.2068 39.3871C83.7004 39.9677 84.7663 40.661 85.886 41.7807C87.006 42.9007 87.6993 43.9666 88.2798 45.4602C88.718 46.5879 89.2393 48.2823 89.3817 51.4021C89.5356 54.7765 89.5681 55.7885 89.5681 64.3327C89.5681 72.8773 89.5356 73.8893 89.3817 77.2637C89.2393 80.3837 88.718 82.0778 88.2798 83.2055C87.6993 84.6991 87.006 85.7653 85.8863 86.885C84.7663 88.0047 83.7004 88.6981 82.2068 89.2786C81.0791 89.717 79.3847 90.2381 76.2647 90.3805C72.8911 90.5343 71.8791 90.5671 63.334 90.5671C54.7889 90.5671 53.7772 90.5343 50.4033 90.3805C47.2833 90.2381 45.5889 89.717 44.4612 89.2786C42.9676 88.6981 41.9017 88.0047 40.782 86.885C39.6623 85.7653 38.9687 84.6991 38.3881 83.2055C37.95 82.0778 37.4286 80.3837 37.2863 77.2637C37.1324 73.8893 37.0999 72.8773 37.0999 64.3327C37.0999 55.7885 37.1324 54.7765 37.2863 51.4021C37.4286 48.2823 37.95 46.5879 38.3881 45.4602C38.9687 43.9666 39.662 42.9007 40.782 41.781C41.9017 40.661 42.9676 39.9677 44.4612 39.3871C45.5889 38.949 47.2833 38.4277 50.4033 38.2853C53.7774 38.1314 54.7897 38.0989 63.334 38.0989ZM63.334 32.333C54.6433 32.333 53.5535 32.3698 50.1404 32.5255C46.7345 32.681 44.4081 33.2218 42.3727 34.013C40.2684 34.8306 38.4839 35.9247 36.7049 37.7039C34.9257 39.4829 33.8316 41.2674 33.014 43.3717C32.2228 45.4071 31.682 47.7333 31.5265 51.1394C31.3708 54.5525 31.334 55.6423 31.334 64.3327C31.334 73.0237 31.3708 74.1133 31.5265 77.5263C31.682 80.9325 32.2228 83.2586 33.014 85.2941C33.8316 87.3983 34.9257 89.1829 36.7049 90.9621C38.4839 92.741 40.2684 93.8351 42.3727 94.6527C44.4081 95.4439 46.7345 95.9847 50.1404 96.1402C53.5535 96.2959 54.6433 96.3327 63.334 96.3327C72.0247 96.3327 73.1145 96.2959 76.5276 96.1402C79.9335 95.9847 82.2599 95.4439 84.2953 94.6527C86.3996 93.8351 88.1841 92.741 89.9631 90.9621C91.742 89.1829 92.8364 87.3983 93.654 85.2941C94.4452 83.2586 94.986 80.9325 95.1414 77.5263C95.2972 74.1133 95.334 73.0237 95.334 64.3327C95.334 55.6423 95.2972 54.5525 95.1414 51.1394C94.986 47.7333 94.4452 45.4071 93.654 43.3717C92.8364 41.2674 91.742 39.4829 89.9631 37.7039C88.1841 35.9247 86.3996 34.8306 84.2953 34.013C82.2599 33.2218 79.9335 32.681 76.5276 32.5255C73.1145 32.3698 72.0247 32.333 63.334 32.333Z" fill="white"/>
<path d="M63.3483 47.916C54.2728 47.916 46.916 55.2728 46.916 64.3483C46.916 73.4237 54.2728 80.7805 63.3483 80.7805C72.4237 80.7805 79.7808 73.4237 79.7808 64.3483C79.7808 55.2728 72.4237 47.916 63.3483 47.916ZM63.3483 75.0149C57.4573 75.0149 52.6816 70.2392 52.6816 64.3483C52.6816 58.4573 57.4573 53.6816 63.3483 53.6816C69.2395 53.6816 74.0149 58.4573 74.0149 64.3483C74.0149 70.2392 69.2395 75.0149 63.3483 75.0149Z" fill="white"/>
<path d="M84.2679 47.2573C84.2679 49.3778 82.5487 51.0973 80.4279 51.0973C78.3071 51.0973 76.5879 49.3778 76.5879 47.2573C76.5879 45.1365 78.3071 43.417 80.4279 43.417C82.5487 43.417 84.2679 45.1365 84.2679 47.2573Z" fill="white"/>
<rect x="2.5" y="3.5" width="120" height="120" stroke="#006DEA"/>
<rect x="0.5" y="120.5" width="5" height="5" fill="#D9D9D9" stroke="#006DEA"/>
<rect x="0.5" y="120.5" width="5" height="5" fill="#D9D9D9" stroke="#006DEA"/>
<rect x="120.5" y="120.5" width="5" height="5" fill="#D9D9D9" stroke="#006DEA"/>
<rect x="120.5" y="0.5" width="5" height="5" fill="#D9D9D9" stroke="#006DEA"/>
<rect x="0.5" y="0.5" width="5" height="5" fill="#D9D9D9" stroke="#006DEA"/>
</svg>
