<svg width="84" height="85" viewBox="0 0 84 85" fill="none" xmlns="http://www.w3.org/2000/svg">
<path d="M75.9643 42.6667C75.9643 23.9075 60.757 8.7002 41.9978 8.7002C23.2386 8.7002 8.03125 23.9075 8.03125 42.6667C8.03125 61.4259 23.2386 76.6333 41.9978 76.6333C60.757 76.6333 75.9643 61.4259 75.9643 42.6667Z" fill="#1275B1"/>
<path d="M33.795 27.3633C33.795 29.6307 31.8296 31.4687 29.4053 31.4687C26.9809 31.4687 25.0156 29.6307 25.0156 27.3633C25.0156 25.0959 26.9809 23.2578 29.4053 23.2578C31.8296 23.2578 33.795 25.0959 33.795 27.3633Z" fill="white"/>
<path d="M25.6152 34.4863H33.1189V57.2243H25.6152V34.4863Z" fill="white"/>
<path d="M45.199 34.4864H37.6953V57.2243H45.199C45.199 57.2243 45.199 50.0661 45.199 45.5905C45.199 42.904 46.1163 40.2059 49.7762 40.2059C53.9124 40.2059 53.8876 43.7214 53.8682 46.445C53.843 50.005 53.9032 53.6382 53.9032 57.2243H61.4069V45.2237C61.3433 37.5611 59.3466 34.0303 52.7777 34.0303C48.8766 34.0303 46.4584 35.8014 45.199 37.4036V34.4864Z" fill="white"/>
<rect x="1.5" y="2.5" width="80" height="80" stroke="#006DEA"/>
<rect x="80.5" y="0.5" width="3" height="3" fill="#D9D9D9" stroke="#006DEA"/>
<rect x="80.5" y="81.5" width="3" height="3" fill="#D9D9D9" stroke="#006DEA"/>
<rect x="0.5" y="0.5" width="3" height="3" fill="#D9D9D9" stroke="#006DEA"/>
<rect x="0.5" y="81.5" width="3" height="3" fill="#D9D9D9" stroke="#006DEA"/>
</svg>
