<svg width="84" height="85" viewBox="0 0 84 85" fill="none" xmlns="http://www.w3.org/2000/svg">
<rect x="1.5" y="2.5" width="80" height="80" stroke="#006DEA"/>
<rect x="80.5" y="0.5" width="3" height="3" fill="#D9D9D9" stroke="#006DEA"/>
<rect x="80.5" y="81.5" width="3" height="3" fill="#D9D9D9" stroke="#006DEA"/>
<rect x="0.5" y="0.5" width="3" height="3" fill="#D9D9D9" stroke="#006DEA"/>
<rect x="0.5" y="81.5" width="3" height="3" fill="#D9D9D9" stroke="#006DEA"/>
<path d="M42.7331 17.0434C45.5719 17 48.3899 17.0225 51.2061 17C51.2998 20.522 52.7287 23.6921 55.0022 26.0401L54.9987 26.0366C57.4456 28.2407 60.6295 29.6696 64.1394 29.9124L64.1879 29.9159V38.649C60.8722 38.5658 57.7543 37.801 54.9432 36.4866L55.0854 36.5455C53.7258 35.8917 52.5761 35.2206 51.4836 34.4715L51.5738 34.5304C51.553 40.8583 51.5946 47.1862 51.5304 53.4916C51.3518 56.7049 50.2836 59.6356 48.5702 62.0825L48.6049 62.0287C45.7401 66.1317 41.0996 68.8249 35.8226 68.9844H35.7983C35.585 68.9948 35.3335 69 35.0803 69C32.0803 69 29.2762 68.1641 26.8865 66.7127L26.9559 66.7526C22.6067 64.1357 19.6066 59.6582 19.0517 54.4505L19.0447 54.3794C19.0014 53.2956 18.9806 52.2118 19.0239 51.1505C19.8736 42.863 26.8172 36.4519 35.2572 36.4519C36.2058 36.4519 37.1353 36.5334 38.0388 36.6877L37.9417 36.6738C37.985 39.8803 37.855 43.0884 37.855 46.2949C37.1214 46.0295 36.2752 45.8752 35.3925 45.8752C32.1531 45.8752 29.3976 47.9458 28.3779 50.8366L28.3623 50.8886C28.1316 51.6291 27.9981 52.4806 27.9981 53.3615C27.9981 53.7187 28.0206 54.0725 28.0623 54.4193L28.0588 54.3777C28.6345 57.9258 31.6762 60.6033 35.3439 60.6033C35.4497 60.6033 35.5538 60.6015 35.6578 60.5963H35.6422C38.1793 60.52 40.3816 59.1553 41.6267 57.1385L41.6441 57.1073C42.1071 56.4621 42.4244 55.6818 42.5302 54.8338L42.532 54.8095C42.7487 50.9302 42.662 47.0735 42.6828 43.1942C42.7036 34.4611 42.662 25.7487 42.7262 17.0382L42.7331 17.0434Z" fill="white"/>
</svg>
