<svg width="14" height="13" viewBox="0 0 14 13" fill="none" xmlns="http://www.w3.org/2000/svg">
<path d="M3.11062 3.28098C3.13338 3.28101 3.15613 3.28104 3.17957 3.28106C3.20559 3.28102 3.2316 3.28099 3.25841 3.28094C3.2872 3.28105 3.31599 3.28115 3.34566 3.28126C3.37578 3.28125 3.40591 3.28125 3.43695 3.28124C3.51979 3.28124 3.60264 3.2814 3.68548 3.2816C3.77197 3.28178 3.85847 3.2818 3.94496 3.28183C4.10885 3.28192 4.27274 3.28216 4.43663 3.28244C4.62316 3.28276 4.8097 3.28292 4.99624 3.28306C5.38006 3.28336 5.76388 3.28386 6.1477 3.2845C6.11104 3.42245 6.06247 3.53977 5.99957 3.66293C5.97785 3.70623 5.95615 3.74956 5.93448 3.7929C5.91671 3.82839 5.91671 3.82839 5.89857 3.8646C5.82741 4.00785 5.75797 4.1523 5.68835 4.29663C5.6731 4.32821 5.65785 4.35978 5.64214 4.39232C5.6108 4.45722 5.57946 4.52212 5.54814 4.58702C5.47275 4.74315 5.39726 4.89921 5.32177 5.05527C5.29185 5.11716 5.26192 5.17904 5.232 5.24092C4.93275 5.85974 4.6335 6.47856 4.33425 7.09738C4.31943 7.12802 4.30462 7.15865 4.28936 7.19022C4.25945 7.25205 4.22955 7.31389 4.19964 7.37572C4.12449 7.53111 4.04937 7.68652 3.97431 7.84197C3.81598 8.1698 3.65725 8.49734 3.49681 8.82371C3.35707 9.10858 3.22068 9.3955 3.08339 9.68214C5.14533 9.68214 7.20728 9.68214 9.33171 9.68214C9.29597 9.78875 9.26105 9.8772 9.21323 9.97523C9.19193 10.019 9.19193 10.019 9.17021 10.0638C9.15487 10.0951 9.13953 10.1265 9.12373 10.1588C9.10758 10.1919 9.09143 10.2251 9.07529 10.2583C9.04177 10.3273 9.00822 10.3962 8.97463 10.465C8.8978 10.6227 8.82152 10.7808 8.74518 10.9388C8.71529 11.0006 8.6854 11.0624 8.6555 11.1242C8.5953 11.2487 8.53514 11.3732 8.47502 11.4978C8.32462 11.8092 8.17394 12.1204 8.0225 12.4311C8.0087 12.4595 7.9949 12.4879 7.98069 12.5172C7.96125 12.557 7.96125 12.557 7.94142 12.5976C7.93016 12.6207 7.91891 12.6438 7.90731 12.6676C7.89545 12.6909 7.88359 12.7142 7.87137 12.7382C7.85988 12.7674 7.84838 12.7966 7.83654 12.8267C7.77006 12.9171 7.76198 12.9222 7.66793 12.9325C7.62229 12.9341 7.57662 12.9348 7.53096 12.9347C7.49321 12.9357 7.49321 12.9357 7.4547 12.9367C7.37009 12.9385 7.28551 12.9392 7.20088 12.9399C7.14032 12.9409 7.07976 12.9421 7.01921 12.9433C6.83724 12.9466 6.65529 12.9484 6.47331 12.9499C6.38752 12.9507 6.30173 12.9516 6.21594 12.9525C5.93056 12.9554 5.64519 12.9579 5.3598 12.9591C5.28576 12.9594 5.21173 12.9598 5.13769 12.9601C5.11009 12.9602 5.11009 12.9602 5.08193 12.9604C4.78419 12.9618 4.48654 12.9661 4.18884 12.9717C3.88287 12.9774 3.57694 12.9804 3.27094 12.981C3.09923 12.9814 2.92765 12.9828 2.75598 12.9872C2.59427 12.9914 2.43282 12.9919 2.27107 12.9902C2.2119 12.9901 2.15273 12.9912 2.0936 12.9935C1.72916 13.0073 1.72916 13.0073 1.57517 12.9095C1.43288 12.7391 1.34989 12.5227 1.27015 12.3046C1.23106 12.2001 1.18459 12.1044 1.13528 12.0063C1.10633 11.9456 1.0774 11.8849 1.04849 11.8242C0.916082 11.5468 0.782255 11.2704 0.64712 10.9949C0.526583 10.7491 0.407188 10.5024 0.288068 10.2556C0.267171 10.2123 0.267171 10.2123 0.245851 10.1681C0.232369 10.1399 0.218887 10.1116 0.204997 10.0825C0.175484 10.0223 0.144791 9.96299 0.113235 9.90433C0.0974383 9.87445 0.0816418 9.84457 0.0653666 9.81379C0.0507833 9.78713 0.0361998 9.76046 0.0211746 9.73299C-0.00486361 9.65358 -0.00486361 9.65358 0.0102216 9.56758C0.042101 9.4846 0.0758639 9.40595 0.114462 9.32714C0.128779 9.29773 0.143096 9.26832 0.157847 9.23801C0.173279 9.20668 0.188711 9.17534 0.204611 9.14306C0.22085 9.10981 0.237077 9.07656 0.253292 9.0433C0.294813 8.95822 0.336485 8.87324 0.378212 8.7883C0.441662 8.65911 0.504905 8.52977 0.568199 8.40047C0.581785 8.37275 0.595371 8.34503 0.609369 8.31648C0.725268 8.07967 0.839328 7.84163 0.953122 7.60338C1.07925 7.33937 1.20692 7.07649 1.33559 6.81423C1.42435 6.63314 1.51212 6.45142 1.59911 6.26911C1.69972 6.05827 1.80162 5.84838 1.90435 5.63899C2.02736 5.38818 2.14884 5.13638 2.26943 4.88391C2.43055 4.54664 2.59358 4.21075 2.75815 3.87585C2.79527 3.80031 2.83231 3.72471 2.86933 3.6491C2.8913 3.60432 2.91328 3.55954 2.93526 3.51477C2.94519 3.49448 2.95513 3.47418 2.96536 3.45328C3.04804 3.28528 3.04804 3.28528 3.11062 3.28098Z" fill="white"/>
<path d="M7.75146 0C7.81635 0.0696518 7.85561 0.145225 7.89875 0.235404C7.91324 0.265555 7.92774 0.295706 7.94268 0.32677C7.95808 0.359134 7.97349 0.391499 7.98936 0.424844C8.00551 0.458527 8.02166 0.492204 8.03783 0.525874C8.07057 0.594119 8.10324 0.662408 8.13584 0.730744C8.17738 0.817781 8.21899 0.904762 8.26065 0.991711C8.29622 1.06595 8.33178 1.14019 8.36731 1.21446C8.51363 1.52026 8.6615 1.82497 8.81052 2.1289C8.96158 2.43704 9.11153 2.74588 9.25968 3.05602C9.3923 3.33366 9.52622 3.61035 9.66147 3.88619C9.8087 4.18656 9.95429 4.48804 10.0999 4.78954C10.1458 4.88466 10.1918 4.97974 10.2378 5.07481C10.3757 5.3595 10.5133 5.64432 10.6497 5.92996C10.7642 6.16971 10.8805 6.40822 10.9973 6.64646C11.146 6.95025 11.2933 7.25507 11.4405 7.55995C11.4865 7.65507 11.5325 7.75015 11.5785 7.84521C11.7178 8.13291 11.8568 8.42073 11.9948 8.70929C12.1529 9.03973 12.3123 9.36916 12.4733 9.69754C12.6327 10.0225 12.7906 10.3484 12.9468 10.6755C13.0729 10.9395 13.2005 11.2023 13.3291 11.4644C13.4313 11.6729 13.5322 11.8822 13.6322 12.0921C13.6918 12.217 13.7519 12.3417 13.8128 12.4657C13.8251 12.4908 13.8374 12.5159 13.8501 12.5417C13.8736 12.5895 13.8971 12.6373 13.9208 12.685C13.9312 12.7062 13.9416 12.7274 13.9523 12.7492C13.9661 12.7771 13.9661 12.7771 13.9802 12.8056C13.9998 12.8524 13.9998 12.8524 13.9998 12.9095C12.9886 12.9095 11.9773 12.9095 10.9355 12.9095C10.8881 12.8059 10.8407 12.7022 10.7918 12.5954C10.7442 12.4935 10.6963 12.3917 10.6482 12.2901C10.6348 12.2619 10.6215 12.2337 10.6077 12.2046C10.498 11.9738 10.3864 11.7445 10.274 11.5155C10.1712 11.3058 10.0691 11.0957 9.9674 10.8853C9.95271 10.8549 9.93801 10.8245 9.92288 10.7932C9.8523 10.6472 9.78182 10.5011 9.71155 10.3548C9.67862 10.2863 9.64564 10.2178 9.61266 10.1493C9.58939 10.101 9.56619 10.0526 9.54299 10.0041C9.52887 9.97483 9.51475 9.94552 9.5002 9.91532C9.48162 9.87664 9.48162 9.87664 9.46268 9.83718C9.41788 9.74948 9.37297 9.67288 9.30961 9.60316C9.24221 9.51702 9.20111 9.42159 9.15494 9.318C9.05961 9.1088 8.96115 8.90219 8.86018 8.6968C8.7418 8.45567 8.62402 8.21417 8.50707 7.97206C8.49217 7.94123 8.47727 7.9104 8.46193 7.87863C8.43171 7.81607 8.4015 7.75351 8.37129 7.69095C8.29641 7.53589 8.22144 7.38091 8.14647 7.22591C8.11654 7.16403 8.08662 7.10215 8.0567 7.04026C8.04188 7.00963 8.02707 6.979 8.01181 6.94744C7.15895 5.18381 7.15895 5.1838 7.11405 5.09095C7.08417 5.02916 7.05428 4.96737 7.02439 4.90559C6.9489 4.74952 6.87347 4.5934 6.79817 4.43721C6.78307 4.40594 6.76798 4.37467 6.75244 4.34245C6.72247 4.28034 6.69255 4.2182 6.66266 4.15604C6.58928 4.00385 6.51482 3.85271 6.43794 3.70299C6.4233 3.67426 6.40867 3.64554 6.39358 3.61594C6.36588 3.56178 6.3379 3.50782 6.30958 3.45411C6.29732 3.43006 6.28506 3.40601 6.27242 3.38123C6.2561 3.34996 6.2561 3.34996 6.23946 3.31805C6.2132 3.23712 6.22173 3.19529 6.24324 3.11314C6.26702 3.05275 6.26702 3.05275 6.29664 2.99209C6.31336 2.95752 6.31336 2.95752 6.33042 2.92224C6.34264 2.89747 6.35485 2.87269 6.36743 2.84717C6.38023 2.82083 6.39303 2.79449 6.40622 2.76735C6.44748 2.68256 6.48898 2.59795 6.53052 2.51336C6.55725 2.45877 6.58396 2.40418 6.61067 2.34958C6.65179 2.26552 6.69293 2.18147 6.73412 2.09746C6.84302 1.87513 6.95035 1.65177 7.0572 1.42805C7.21793 1.09156 7.38073 0.756571 7.5448 0.422389C7.61383 0.281688 7.68264 0.140839 7.75146 0Z" fill="white"/>
</svg>
